<?xml version="1.0" standalone="no"?><!DOCTYPE svg PUBLIC "-//W3C//DTD SVG 1.1//EN" "http://www.w3.org/Graphics/SVG/1.1/DTD/svg11.dtd"><svg t="1508490335709" class="icon" style="" viewBox="0 0 1024 1024" version="1.1" xmlns="http://www.w3.org/2000/svg" p-id="6114" xmlns:xlink="http://www.w3.org/1999/xlink" width="24" height="24"><defs><style type="text/css"></style></defs><path d="M452 270c-16.542 0-30-13.458-30-30L422 120c0-16.542 13.458-30 30-30l120 0c16.542 0 30 13.458 30 30l0 120c0 16.542-13.458 30-30 30L452 270z" p-id="6115" fill="#ffffff"></path><path d="M452 602c-16.542 0-30-13.458-30-30l0-120c0-16.542 13.458-30 30-30l120 0c16.542 0 30 13.458 30 30l0 120c0 16.542-13.458 30-30 30L452 602z" p-id="6116" fill="#ffffff"></path><path d="M452 934c-16.542 0-30-13.458-30-30l0-120c0-16.542 13.458-30 30-30l120 0c16.542 0 30 13.458 30 30l0 120c0 16.542-13.458 30-30 30L452 934z" p-id="6117" fill="#ffffff"></path></svg>